# xmcd CD database file
#
# Track frame offsets:
#	150
#	27022
#	47148
#	75039
#	97150
#	129989
#	154688
#	200112
#	226725
#	260041
#	291649
#
# Disc length: 4239 seconds
#
# Revision: 1
# Processed by: cddbd v1.5.2PL0 Copyright (c) Steve Scherf et al.
# Submitted via: CDex 1.51
#
DISCID=92108d0b
DTITLE=Herbie Mann - Milestones Of A Legend CD 5 - Yardbird Suite and Flute Flight
DYEAR=1957
DGENRE=Jazz
TTITLE0=Yardbird Suite
TTITLE1=Here's That Man
TTITLE2=One For Tubby
TTITLE3=Squire's Parlor
TTITLE4=Who Knew
TTITLE5=Opicana
TTITLE6=Tutti Flutie
TTITLE7=Bo Do
TTITLE8=Flute Bass Blues
TTITLE9=Flute Bob
TTITLE10=Solacium
EXTD=YEAR: 1957
EXTT0=
EXTT1=
EXTT2=
EXTT3=
EXTT4=
EXTT5=
EXTT6=
EXTT7=
EXTT8=
EXTT9=
EXTT10=
PLAYORDER=
